<svg xmlns="http://www.w3.org/2000/svg" xmlns:xlink="http://www.w3.org/1999/xlink" width="500" zoomAndPan="magnify" viewBox="0 0 375 374.999991" height="500" preserveAspectRatio="xMidYMid meet" version="1.0"><defs><g/><clipPath id="c4e4b39bbe"><path d="M 120.863281 248.683594 L 290.578125 248.683594 L 290.578125 262.464844 L 120.863281 262.464844 Z M 120.863281 248.683594 " clip-rule="nonzero"/></clipPath></defs><rect x="-37.5" width="450" fill="#ffffff" y="-37.499999" height="449.999989" fill-opacity="1"/><rect x="-37.5" width="450" fill="#ebe8e8" y="-37.499999" height="449.999989" fill-opacity="1"/><g fill="#231f20" fill-opacity="1"><g transform="translate(47.085594, 176.592909)"><g><path d="M 2.78125 -35.15625 C 2.78125 -40.832031 3.597656 -45.921875 5.234375 -50.421875 C 6.878906 -54.929688 9.128906 -58.75 11.984375 -61.875 C 14.847656 -65 18.128906 -67.382812 21.828125 -69.03125 C 25.535156 -70.675781 29.46875 -71.5 33.625 -71.5 C 35.3125 -71.539062 36.75 -71.507812 37.9375 -71.40625 C 39.132812 -71.300781 40.265625 -71.175781 41.328125 -71.03125 C 42.398438 -70.882812 43.539062 -70.75 44.75 -70.625 C 45.96875 -70.507812 47.398438 -70.453125 49.046875 -70.453125 C 49.660156 -70.453125 50.328125 -70.539062 51.046875 -70.71875 C 51.765625 -70.90625 52.289062 -71.207031 52.625 -71.625 L 53.234375 -71.625 L 53.234375 -49.234375 L 52.625 -49.234375 C 52.414062 -50.910156 52.007812 -52.707031 51.40625 -54.625 C 50.8125 -56.539062 50.039062 -58.421875 49.09375 -60.265625 C 48.15625 -62.117188 47.035156 -63.804688 45.734375 -65.328125 C 44.441406 -66.847656 42.992188 -68.0625 41.390625 -68.96875 C 39.785156 -69.875 38.039062 -70.328125 36.15625 -70.328125 C 34.257812 -70.328125 32.59375 -69.6875 31.15625 -68.40625 C 29.71875 -67.132812 28.484375 -65.367188 27.453125 -63.109375 C 26.421875 -60.847656 25.585938 -58.222656 24.953125 -55.234375 C 24.316406 -52.253906 23.851562 -49.046875 23.5625 -45.609375 C 23.269531 -42.179688 23.125 -38.675781 23.125 -35.09375 C 23.125 -31.5625 23.269531 -28.085938 23.5625 -24.671875 C 23.851562 -21.265625 24.316406 -18.066406 24.953125 -15.078125 C 25.585938 -12.097656 26.421875 -9.476562 27.453125 -7.21875 C 28.484375 -4.957031 29.71875 -3.1875 31.15625 -1.90625 C 32.59375 -0.632812 34.257812 0 36.15625 0 L 36.15625 -31.03125 C 36.15625 -33.332031 35.84375 -35.148438 35.21875 -36.484375 C 34.601562 -37.828125 33.578125 -38.679688 32.140625 -39.046875 L 32.140625 -39.671875 L 59.90625 -39.671875 L 59.90625 -39.046875 C 58.457031 -38.679688 57.425781 -37.828125 56.8125 -36.484375 C 56.195312 -35.148438 55.890625 -33.332031 55.890625 -31.03125 L 55.890625 -3.890625 C 55.890625 -3.890625 55.382812 -3.628906 54.375 -3.109375 C 53.363281 -2.597656 51.898438 -2.015625 49.984375 -1.359375 C 48.078125 -0.703125 45.742188 -0.117188 42.984375 0.390625 C 40.234375 0.910156 37.113281 1.171875 33.625 1.171875 C 29.46875 1.171875 25.535156 0.347656 21.828125 -1.296875 C 18.128906 -2.941406 14.847656 -5.328125 11.984375 -8.453125 C 9.128906 -11.578125 6.878906 -15.390625 5.234375 -19.890625 C 3.597656 -24.398438 2.78125 -29.488281 2.78125 -35.15625 Z M 2.78125 -35.15625 "/></g></g></g><g fill="#231f20" fill-opacity="1"><g transform="translate(106.680966, 176.592909)"><g><path d="M 5.546875 -61.6875 C 5.546875 -63.988281 5.238281 -65.804688 4.625 -67.140625 C 4.007812 -68.484375 2.984375 -69.335938 1.546875 -69.703125 L 1.546875 -70.328125 L 29.296875 -70.328125 L 29.296875 -69.703125 C 27.859375 -69.335938 26.832031 -68.484375 26.21875 -67.140625 C 25.601562 -65.804688 25.296875 -63.988281 25.296875 -61.6875 L 25.296875 -41.453125 L 36.15625 -41.453125 L 36.15625 -61.6875 C 36.15625 -63.988281 35.84375 -65.804688 35.21875 -67.140625 C 34.601562 -68.484375 33.578125 -69.335938 32.140625 -69.703125 L 32.140625 -70.328125 L 59.90625 -70.328125 L 59.90625 -69.703125 C 58.457031 -69.335938 57.425781 -68.484375 56.8125 -67.140625 C 56.195312 -65.804688 55.890625 -63.988281 55.890625 -61.6875 L 55.890625 -8.640625 C 55.890625 -6.378906 56.195312 -4.566406 56.8125 -3.203125 C 57.425781 -1.847656 58.457031 -0.984375 59.90625 -0.609375 L 59.90625 0 L 32.140625 0 L 32.140625 -0.609375 C 33.578125 -0.984375 34.601562 -1.847656 35.21875 -3.203125 C 35.84375 -4.566406 36.15625 -6.378906 36.15625 -8.640625 L 36.15625 -40.21875 L 25.296875 -40.21875 L 25.296875 -8.640625 C 25.296875 -6.378906 25.601562 -4.566406 26.21875 -3.203125 C 26.832031 -1.847656 27.859375 -0.984375 29.296875 -0.609375 L 29.296875 0 L 1.546875 0 L 1.546875 -0.609375 C 2.984375 -0.984375 4.007812 -1.847656 4.625 -3.203125 C 5.238281 -4.566406 5.546875 -6.378906 5.546875 -8.640625 Z M 5.546875 -61.6875 "/></g></g></g><g fill="#231f20" fill-opacity="1"><g transform="translate(166.276337, 176.592909)"><g><path d="M 1.546875 0 L 1.546875 -0.609375 C 2.984375 -0.984375 4.007812 -1.847656 4.625 -3.203125 C 5.238281 -4.566406 5.546875 -6.378906 5.546875 -8.640625 L 5.546875 -61.6875 C 5.546875 -63.988281 5.238281 -65.804688 4.625 -67.140625 C 4.007812 -68.484375 2.984375 -69.335938 1.546875 -69.703125 L 1.546875 -70.328125 L 29.296875 -70.328125 L 29.296875 -69.703125 C 27.859375 -69.335938 26.832031 -68.484375 26.21875 -67.140625 C 25.601562 -65.804688 25.296875 -63.988281 25.296875 -61.6875 L 25.296875 -8.640625 C 25.296875 -6.378906 25.601562 -4.566406 26.21875 -3.203125 C 26.832031 -1.847656 27.859375 -0.984375 29.296875 -0.609375 L 29.296875 0 Z M 1.546875 0 "/></g></g></g><g fill="#231f20" fill-opacity="1"><g transform="translate(195.271978, 176.592909)"><g><path d="M 5.546875 -61.6875 C 5.546875 -63.988281 5.238281 -65.804688 4.625 -67.140625 C 4.007812 -68.484375 2.984375 -69.335938 1.546875 -69.703125 L 1.546875 -70.328125 L 37.265625 -70.328125 C 41.703125 -70.328125 45.398438 -69.644531 48.359375 -68.28125 C 51.316406 -66.925781 53.523438 -65.085938 54.984375 -62.765625 C 56.453125 -60.441406 57.1875 -57.800781 57.1875 -54.84375 C 57.1875 -53.070312 56.875 -51.34375 56.25 -49.65625 C 55.632812 -47.96875 54.617188 -46.414062 53.203125 -45 C 51.785156 -43.582031 49.863281 -42.367188 47.4375 -41.359375 C 45.007812 -40.347656 41.988281 -39.640625 38.375 -39.234375 C 52.800781 -37.878906 60.015625 -31.28125 60.015625 -19.4375 C 60.015625 -16.925781 59.5625 -14.507812 58.65625 -12.1875 C 57.757812 -9.863281 56.394531 -7.785156 54.5625 -5.953125 C 52.726562 -4.117188 50.460938 -2.664062 47.765625 -1.59375 C 45.078125 -0.53125 41.945312 0 38.375 0 L 1.546875 0 L 1.546875 -0.609375 C 2.984375 -0.984375 4.007812 -1.847656 4.625 -3.203125 C 5.238281 -4.566406 5.546875 -6.378906 5.546875 -8.640625 Z M 25.296875 -1.234375 L 27.828125 -1.234375 C 30.367188 -1.234375 32.515625 -2.035156 34.265625 -3.640625 C 36.015625 -5.242188 37.34375 -7.453125 38.25 -10.265625 C 39.15625 -13.085938 39.609375 -16.347656 39.609375 -20.046875 C 39.609375 -23.628906 39.1875 -26.796875 38.34375 -29.546875 C 37.5 -32.304688 36.148438 -34.46875 34.296875 -36.03125 C 32.441406 -37.59375 29.992188 -38.375 26.953125 -38.375 L 25.296875 -38.375 Z M 27.9375 -69.09375 L 25.296875 -69.09375 L 25.296875 -39.609375 L 26.953125 -39.609375 C 29.421875 -39.609375 31.375 -40.304688 32.8125 -41.703125 C 34.257812 -43.097656 35.289062 -44.925781 35.90625 -47.1875 C 36.519531 -49.445312 36.828125 -51.875 36.828125 -54.46875 C 36.828125 -56.9375 36.523438 -59.28125 35.921875 -61.5 C 35.328125 -63.71875 34.382812 -65.535156 33.09375 -66.953125 C 31.800781 -68.378906 30.082031 -69.09375 27.9375 -69.09375 Z M 27.9375 -69.09375 "/></g></g></g><g fill="#231f20" fill-opacity="1"><g transform="translate(256.224592, 176.592909)"><g><path d="M 1.546875 -70.328125 L 29.296875 -70.328125 L 29.296875 -69.703125 C 27.859375 -69.335938 26.832031 -68.484375 26.21875 -67.140625 C 25.601562 -65.804688 25.296875 -63.988281 25.296875 -61.6875 L 25.296875 -1.234375 L 28.875 -1.234375 C 31.300781 -1.234375 33.582031 -1.707031 35.71875 -2.65625 C 37.851562 -3.601562 39.785156 -4.828125 41.515625 -6.328125 C 43.242188 -7.828125 44.742188 -9.476562 46.015625 -11.28125 C 47.296875 -13.09375 48.273438 -14.863281 48.953125 -16.59375 C 49.628906 -18.320312 49.96875 -19.863281 49.96875 -21.21875 L 50.578125 -21.21875 L 50.578125 0 L 1.546875 0 L 1.546875 -0.609375 C 2.984375 -0.984375 4.007812 -1.847656 4.625 -3.203125 C 5.238281 -4.566406 5.546875 -6.378906 5.546875 -8.640625 L 5.546875 -61.6875 C 5.546875 -63.988281 5.238281 -65.804688 4.625 -67.140625 C 4.007812 -68.484375 2.984375 -69.335938 1.546875 -69.703125 Z M 1.546875 -70.328125 "/></g></g></g><g fill="#231f20" fill-opacity="1"><g transform="translate(306.504331, 176.592909)"><g><path d="M 1.546875 0 L 1.546875 -0.609375 C 2.984375 -0.984375 4.007812 -1.847656 4.625 -3.203125 C 5.238281 -4.566406 5.546875 -6.378906 5.546875 -8.640625 L 5.546875 -61.6875 C 5.546875 -63.988281 5.238281 -65.804688 4.625 -67.140625 C 4.007812 -68.484375 2.984375 -69.335938 1.546875 -69.703125 L 1.546875 -70.328125 L 29.296875 -70.328125 L 29.296875 -69.703125 C 27.859375 -69.335938 26.832031 -68.484375 26.21875 -67.140625 C 25.601562 -65.804688 25.296875 -63.988281 25.296875 -61.6875 L 25.296875 -8.640625 C 25.296875 -6.378906 25.601562 -4.566406 26.21875 -3.203125 C 26.832031 -1.847656 27.859375 -0.984375 29.296875 -0.609375 L 29.296875 0 Z M 1.546875 0 "/></g></g></g><g fill="#231f20" fill-opacity="1"><g transform="translate(61.644241, 286.750947)"><g><path d="M 29.296875 0 L 1.546875 0 L 1.546875 -0.609375 C 2.984375 -0.984375 4.007812 -1.847656 4.625 -3.203125 C 5.238281 -4.566406 5.546875 -6.378906 5.546875 -8.640625 L 5.546875 -61.6875 C 5.546875 -63.988281 5.238281 -65.804688 4.625 -67.140625 C 4.007812 -68.484375 2.984375 -69.335938 1.546875 -69.703125 L 1.546875 -70.328125 L 37.625 -70.328125 C 41.613281 -70.328125 45.203125 -69.421875 48.390625 -67.609375 C 51.578125 -65.796875 54.101562 -63.253906 55.96875 -59.984375 C 57.84375 -56.722656 58.78125 -52.910156 58.78125 -48.546875 C 58.78125 -43.484375 57.753906 -39.253906 55.703125 -35.859375 C 53.648438 -32.472656 50.8125 -29.925781 47.1875 -28.21875 C 43.570312 -26.507812 39.398438 -25.65625 34.671875 -25.65625 L 25.296875 -25.65625 L 25.296875 -8.640625 C 25.296875 -6.378906 25.601562 -4.566406 26.21875 -3.203125 C 26.832031 -1.847656 27.859375 -0.984375 29.296875 -0.609375 Z M 25.296875 -69.15625 L 25.296875 -27.203125 L 26.46875 -27.203125 C 28.851562 -27.203125 30.816406 -27.753906 32.359375 -28.859375 C 33.898438 -29.972656 35.113281 -31.515625 36 -33.484375 C 36.882812 -35.460938 37.5 -37.75 37.84375 -40.34375 C 38.195312 -42.9375 38.375 -45.691406 38.375 -48.609375 C 38.375 -51.203125 38.1875 -53.703125 37.8125 -56.109375 C 37.445312 -58.515625 36.78125 -60.671875 35.8125 -62.578125 C 34.84375 -64.492188 33.515625 -66.035156 31.828125 -67.203125 C 30.140625 -68.378906 27.960938 -69.03125 25.296875 -69.15625 Z M 25.296875 -69.15625 "/></g></g></g><g fill="#231f20" fill-opacity="1"><g transform="translate(121.363001, 286.750947)"><g><path d="M 51.015625 0 L 1.546875 0 L 1.546875 -0.609375 C 2.984375 -0.984375 4.007812 -1.847656 4.625 -3.203125 C 5.238281 -4.566406 5.546875 -6.378906 5.546875 -8.640625 L 5.546875 -61.6875 C 5.546875 -63.988281 5.238281 -65.804688 4.625 -67.140625 C 4.007812 -68.484375 2.984375 -69.335938 1.546875 -69.703125 L 1.546875 -70.328125 L 51.015625 -70.328125 L 51.015625 -49.109375 L 50.40625 -49.109375 C 50.40625 -50.460938 50.0625 -52.003906 49.375 -53.734375 C 48.695312 -55.460938 47.71875 -57.226562 46.4375 -59.03125 C 45.164062 -60.84375 43.664062 -62.5 41.9375 -64 C 40.21875 -65.5 38.285156 -66.722656 36.140625 -67.671875 C 34.003906 -68.617188 31.722656 -69.09375 29.296875 -69.09375 L 25.296875 -69.09375 L 25.296875 -38.1875 L 27.703125 -38.1875 C 29.222656 -38.1875 30.773438 -38.503906 32.359375 -39.140625 C 33.941406 -39.773438 35.421875 -40.597656 36.796875 -41.609375 C 38.171875 -42.617188 39.320312 -43.738281 40.25 -44.96875 C 41.175781 -46.207031 41.742188 -47.398438 41.953125 -48.546875 L 42.5625 -48.546875 L 42.5625 -26.59375 L 41.953125 -26.59375 C 41.742188 -27.78125 41.175781 -28.976562 40.25 -30.1875 C 39.320312 -31.40625 38.171875 -32.515625 36.796875 -33.515625 C 35.421875 -34.523438 33.941406 -35.347656 32.359375 -35.984375 C 30.773438 -36.628906 29.222656 -36.953125 27.703125 -36.953125 L 25.296875 -36.953125 L 25.296875 -1.234375 L 29.296875 -1.234375 C 31.722656 -1.234375 34.003906 -1.707031 36.140625 -2.65625 C 38.285156 -3.601562 40.21875 -4.828125 41.9375 -6.328125 C 43.664062 -7.828125 45.164062 -9.476562 46.4375 -11.28125 C 47.71875 -13.09375 48.695312 -14.863281 49.375 -16.59375 C 50.0625 -18.320312 50.40625 -19.863281 50.40625 -21.21875 L 51.015625 -21.21875 Z M 51.015625 0 "/></g></g></g><g fill="#231f20" fill-opacity="1"><g transform="translate(172.074581, 286.750947)"><g><path d="M 1.546875 -69.703125 L 1.546875 -70.328125 L 28.625 -70.328125 C 34.75 -70.328125 40.070312 -69.007812 44.59375 -66.375 C 49.125 -63.738281 52.617188 -59.820312 55.078125 -54.625 C 57.546875 -49.425781 58.78125 -42.9375 58.78125 -35.15625 C 58.78125 -27.425781 57.546875 -20.945312 55.078125 -15.71875 C 52.617188 -10.5 49.125 -6.570312 44.59375 -3.9375 C 40.070312 -1.3125 34.75 0 28.625 0 L 1.546875 0 L 1.546875 -0.609375 C 2.984375 -0.984375 4.007812 -1.847656 4.625 -3.203125 C 5.238281 -4.566406 5.546875 -6.378906 5.546875 -8.640625 L 5.546875 -61.6875 C 5.546875 -63.988281 5.238281 -65.804688 4.625 -67.140625 C 4.007812 -68.484375 2.984375 -69.335938 1.546875 -69.703125 Z M 25.296875 -68.65625 L 25.296875 -1.671875 C 27.679688 -1.710938 29.664062 -2.359375 31.25 -3.609375 C 32.832031 -4.859375 34.09375 -6.5625 35.03125 -8.71875 C 35.976562 -10.882812 36.6875 -13.375 37.15625 -16.1875 C 37.632812 -19.007812 37.957031 -22.023438 38.125 -25.234375 C 38.289062 -28.441406 38.375 -31.726562 38.375 -35.09375 C 38.375 -38.46875 38.289062 -41.769531 38.125 -45 C 37.957031 -48.226562 37.632812 -51.25 37.15625 -54.0625 C 36.6875 -56.882812 35.976562 -59.382812 35.03125 -61.5625 C 34.09375 -63.738281 32.832031 -65.453125 31.25 -66.703125 C 29.664062 -67.960938 27.679688 -68.613281 25.296875 -68.65625 Z M 25.296875 -68.65625 "/></g></g></g><g fill="#231f20" fill-opacity="1"><g transform="translate(231.793338, 286.750947)"><g><path d="M 1.546875 0 L 1.546875 -0.609375 C 2.984375 -0.984375 4.007812 -1.847656 4.625 -3.203125 C 5.238281 -4.566406 5.546875 -6.378906 5.546875 -8.640625 L 5.546875 -61.6875 C 5.546875 -63.988281 5.238281 -65.804688 4.625 -67.140625 C 4.007812 -68.484375 2.984375 -69.335938 1.546875 -69.703125 L 1.546875 -70.328125 L 29.296875 -70.328125 L 29.296875 -69.703125 C 27.859375 -69.335938 26.832031 -68.484375 26.21875 -67.140625 C 25.601562 -65.804688 25.296875 -63.988281 25.296875 -61.6875 L 25.296875 -8.640625 C 25.296875 -6.378906 25.601562 -4.566406 26.21875 -3.203125 C 26.832031 -1.847656 27.859375 -0.984375 29.296875 -0.609375 L 29.296875 0 Z M 1.546875 0 "/></g></g></g><g fill="#231f20" fill-opacity="1"><g transform="translate(260.788987, 286.750947)"><g><path d="M 0 0 L 0 -0.609375 C 0.78125 -0.609375 1.53125 -1.164062 2.25 -2.28125 C 2.96875 -3.394531 3.644531 -4.8125 4.28125 -6.53125 C 4.925781 -8.257812 5.515625 -10.085938 6.046875 -12.015625 C 6.578125 -13.953125 7.050781 -15.742188 7.46875 -17.390625 C 8.53125 -21.546875 9.503906 -25.378906 10.390625 -28.890625 C 11.273438 -32.410156 12.117188 -35.785156 12.921875 -39.015625 C 13.722656 -42.242188 14.523438 -45.472656 15.328125 -48.703125 C 16.128906 -51.929688 16.984375 -55.3125 17.890625 -58.84375 C 18.796875 -62.382812 19.757812 -66.210938 20.78125 -70.328125 L 41.203125 -70.328125 C 42.273438 -66.210938 43.253906 -62.382812 44.140625 -58.84375 C 45.023438 -55.3125 45.878906 -51.929688 46.703125 -48.703125 C 47.523438 -45.472656 48.347656 -42.242188 49.171875 -39.015625 C 49.992188 -35.785156 50.832031 -32.410156 51.6875 -28.890625 C 52.550781 -25.378906 53.5 -21.546875 54.53125 -17.390625 C 54.945312 -15.742188 55.421875 -13.953125 55.953125 -12.015625 C 56.484375 -10.085938 57.066406 -8.257812 57.703125 -6.53125 C 58.347656 -4.8125 59.03125 -3.394531 59.75 -2.28125 C 60.46875 -1.164062 61.21875 -0.609375 62 -0.609375 L 62 0 L 31.03125 0 L 31.03125 -0.609375 C 32.550781 -1.765625 33.523438 -3.429688 33.953125 -5.609375 C 34.390625 -7.796875 34.492188 -10.273438 34.265625 -13.046875 C 34.035156 -15.816406 33.613281 -18.644531 33 -21.53125 L 15.609375 -21.53125 C 16.015625 -16.757812 16.96875 -12.601562 18.46875 -9.0625 C 19.976562 -5.53125 22.171875 -2.710938 25.046875 -0.609375 L 25.046875 0 Z M 21.34375 -68.21875 C 19.289062 -59.21875 17.71875 -50.890625 16.625 -43.234375 C 15.53125 -35.585938 15.171875 -28.765625 15.546875 -22.765625 L 32.75 -22.765625 C 32.382812 -24.367188 32.003906 -25.941406 31.609375 -27.484375 C 31.222656 -29.023438 30.863281 -30.492188 30.53125 -31.890625 C 29.789062 -34.765625 29.132812 -37.332031 28.5625 -39.59375 C 27.988281 -41.863281 27.441406 -44.015625 26.921875 -46.046875 C 26.410156 -48.085938 25.882812 -50.175781 25.34375 -52.3125 C 24.8125 -54.445312 24.226562 -56.789062 23.59375 -59.34375 C 22.957031 -61.894531 22.207031 -64.851562 21.34375 -68.21875 Z M 21.34375 -68.21875 "/></g></g></g><g clip-path="url(#c4e4b39bbe)"><path fill="#ebe8e8" d="M 120.863281 248.683594 L 290.570312 248.683594 L 290.570312 262.464844 L 120.863281 262.464844 Z M 120.863281 248.683594 " fill-opacity="1" fill-rule="nonzero"/></g></svg>